# Blender v2.79 (sub 0) OBJ File: 'LightRim.blend'
# www.blender.org
mtllib LightRim.mtl
o LightRim
v -40.000000 -4.000000 40.000000
v -40.000000 4.000000 40.000000
v -40.000000 -4.000000 -40.000000
v -40.000000 4.000000 -40.000000
v 40.000000 -4.000000 40.000000
v 40.000000 4.000000 40.000000
v 40.000000 -4.000000 -40.000000
v 40.000000 4.000000 -40.000000
vn 1.0000 0.0000 0.0000
vn 0.0000 0.0000 1.0000
vn -1.0000 0.0000 0.0000
vn 0.0000 0.0000 -1.0000
usemtl LightRim
s off
f 1//1 3//1 4//1 2//1
f 3//2 7//2 8//2 4//2
f 7//3 5//3 6//3 8//3
f 5//4 1//4 2//4 6//4
